<svg width="32" height="32" viewBox="0 0 32 32" fill="none" xmlns="http://www.w3.org/2000/svg">
<path d="M9.33325 26.6667H22.6666" stroke="#5CE600" stroke-width="3" stroke-linecap="round" stroke-linejoin="round"/>
<path d="M13.3333 26.6666C20.6666 23.3333 14.3999 18.1333 17.3333 13.3333" stroke="#5CE600" stroke-width="3" stroke-linecap="round" stroke-linejoin="round"/>
<path d="M12.6666 12.5334C14.1333 13.6 15.0666 15.4667 15.7333 17.4667C13.0666 18 11.0666 18 9.33325 17.0667C7.73325 16.2667 6.26659 14.5334 5.33325 11.4667C9.06659 10.8 11.1999 11.4667 12.6666 12.5334Z" stroke="#5CE600" stroke-width="3" stroke-linecap="round" stroke-linejoin="round"/>
<path d="M18.8 7.99998C17.7834 9.58872 17.2721 11.4482 17.3333 13.3333C19.8666 13.2 21.7333 12.5333 23.0666 11.4666C24.4 10.1333 25.2 8.39998 25.3333 5.33331C21.7333 5.46665 20 6.66665 18.8 7.99998Z" stroke="#5CE600" stroke-width="3" stroke-linecap="round" stroke-linejoin="round"/>
</svg>
