<svg width="1044" height="680" viewBox="0 0 1044 680" fill="none" xmlns="http://www.w3.org/2000/svg">
<path d="M270.401 0.958992C231.201 5.35899 199.734 16.6923 167.734 37.8923C136.668 58.4257 114.268 81.759 96.401 112.159C89.7344 123.759 81.0677 140.826 81.0677 142.826C81.0677 143.359 80.2677 145.626 79.201 147.892C75.0677 157.359 72.2677 167.626 67.4677 191.492C66.2677 197.759 65.7344 214.426 65.7344 252.159C65.7344 297.626 66.001 305.626 68.2677 316.159C74.2677 345.759 88.2677 378.159 104.134 399.492C126.801 430.159 158.401 455.626 190.401 469.226C192.934 470.292 197.201 472.026 199.734 473.226C213.601 479.226 237.734 484.426 259.868 486.159C284.534 488.026 776.401 487.892 787.601 486.026C799.334 484.026 806.668 480.426 814.001 472.959C823.734 463.226 826.934 454.959 827.468 438.159C827.868 425.492 827.601 423.359 824.668 416.426C820.268 406.559 810.401 396.292 801.201 391.759L793.734 388.159L534.401 387.359C299.868 386.692 274.268 386.426 266.268 384.426C236.534 377.092 212.801 361.492 197.201 338.959C190.268 328.826 182.401 314.959 182.401 312.692C182.401 312.026 181.201 308.959 179.868 305.759C178.401 302.692 176.401 296.292 175.201 291.492C166.001 253.226 170.534 208.559 186.668 176.159C207.334 135.092 239.734 110.559 286.801 100.426C291.734 99.4923 386.934 98.8257 612.401 98.2923L931.068 97.4923V48.8257V0.158992L605.734 0.0256582C426.801 -0.107675 275.868 0.292325 270.401 0.958992Z" fill="white"/>
<path d="M309.068 194.559C293.468 200.826 285.334 207.226 280.001 217.626C271.068 234.826 272.401 256.026 283.334 271.759C287.068 277.226 300.668 287.493 304.268 287.493C305.334 287.493 306.534 288.026 306.934 288.693C307.334 289.359 310.001 290.293 312.668 290.826C315.468 291.493 431.201 292.293 569.734 292.826C730.134 293.493 824.934 294.293 830.401 295.226C891.068 304.693 931.601 349.893 938.401 415.493C939.334 425.626 939.334 433.359 938.268 443.493C934.534 478.826 925.068 504.026 906.268 528.826C885.734 556.159 859.334 572.559 825.068 579.493C814.401 581.626 262.801 580.559 245.201 578.426C232.134 576.826 206.401 570.959 192.401 566.426C151.334 552.959 111.201 529.626 81.3342 501.493C77.3342 497.893 73.2009 494.293 72.1342 493.626C70.5342 492.826 62.1342 500.426 34.9342 527.626C15.4675 546.959 -0.132485 563.493 0.000848363 564.293C0.534182 566.426 18.1342 582.426 33.0675 594.426C57.7342 614.293 103.468 640.826 129.068 650.159C133.868 651.893 138.401 653.626 139.068 654.159C140.268 654.959 156.134 660.159 178.401 666.826C188.401 669.893 226.134 676.559 241.068 678.026C262.268 680.026 830.934 680.426 843.068 678.293C871.734 673.626 891.601 667.493 913.734 656.826C939.068 644.559 956.668 632.026 976.534 612.293C1006.67 582.159 1029.33 541.359 1037.73 502.159C1042.8 478.159 1043.07 474.826 1043.07 428.159C1043.07 377.626 1042.67 372.693 1035.47 345.493C1030.13 325.626 1020.27 304.026 1007.6 284.826C993.201 262.959 961.468 232.826 940.401 220.693C921.201 209.759 901.734 201.893 879.201 195.759L865.734 192.159L591.068 191.893L316.401 191.626L309.068 194.559Z" fill="white"/>
</svg>
