<svg width="3209" height="681" viewBox="0 0 3209 681" fill="none" xmlns="http://www.w3.org/2000/svg">
<path d="M271 1.79981C231.8 6.19981 200.334 17.5331 168.334 38.7331C137.267 59.2665 114.867 82.5998 97.0002 113C90.3335 124.6 81.6668 141.666 81.6668 143.666C81.6668 144.2 80.8668 146.466 79.8002 148.733C75.6668 158.2 72.8668 168.466 68.0668 192.333C66.8668 198.6 66.3335 215.266 66.3335 253C66.3335 298.466 66.6002 306.466 68.8668 317C74.8668 346.6 88.8668 379 104.733 400.333C127.4 431 159 456.467 191 470.067C193.534 471.133 197.8 472.867 200.334 474.067C214.2 480.067 238.334 485.267 260.467 487C285.134 488.867 777 488.733 788.2 486.867C799.934 484.867 807.267 481.267 814.6 473.8C824.334 464.067 827.534 455.8 828.067 439C828.467 426.333 828.2 424.2 825.267 417.267C820.867 407.4 811 397.133 801.8 392.6L794.334 389L535 388.2C300.467 387.533 274.867 387.267 266.867 385.267C237.134 377.933 213.4 362.333 197.8 339.8C190.867 329.666 183 315.8 183 313.533C183 312.866 181.8 309.8 180.467 306.6C179 303.533 177 297.133 175.8 292.333C166.6 254.066 171.134 209.4 187.267 177C207.934 135.933 240.334 111.4 287.4 101.266C292.334 100.333 387.534 99.6665 613 99.1332L931.667 98.3332V49.6665V0.999812L606.334 0.866478C427.4 0.733145 276.467 1.13315 271 1.79981Z" fill="white"/>
<path d="M1881 98.4668C1856.2 100.867 1846.33 106.333 1842.33 119.667C1840.47 126.067 1840.33 155.267 1840.6 391.267L1841 655.667L1843.93 661.267C1847.53 667.934 1852.07 671.267 1861.67 674.6C1872.07 678.067 1909.4 678.067 1920.6 674.6C1929 672.067 1936.47 666.334 1940.07 659.8C1942.2 655.934 1942.33 637.4 1942.33 388.2V120.733L1938.33 114.333C1933.8 107.133 1927 103 1915.8 100.6C1907.93 98.8668 1888.73 97.8002 1881 98.4668Z" fill="white"/>
<path d="M2405.93 99.1333C2381.13 101.533 2366.87 109.933 2361.13 125.133C2352.87 147.667 2356.47 170.6 2370.2 183.667C2381.27 194.333 2406.33 199.133 2435.4 196.333C2444.2 195.533 2452.87 194.2 2454.87 193.4C2470.33 187.267 2477.13 180.867 2481.8 168.467C2484.07 162.2 2484.47 158.733 2484.07 145.667C2483.67 129.133 2482.2 124.467 2474.6 114.733C2465.27 102.467 2436.6 96.0666 2405.93 99.1333Z" fill="white"/>
<path d="M2188.33 102.6C2185.8 102.733 2177.13 103.667 2169 104.333C2138.87 107.267 2106.2 115.667 2083 126.6C2050.33 141.933 2026.6 169.667 2018.47 201.667C2013.8 220.067 2013.53 234.467 2013.93 445.667C2014.33 676.333 2013.67 658.867 2022.73 667.4C2029.93 674.333 2038.87 676.733 2060.2 677.4C2091.53 678.333 2105.53 673.933 2113.67 660.333C2115.4 657.4 2115.8 634.467 2116.33 483C2116.73 387.267 2117.13 308.867 2117.4 308.6C2117.53 308.467 2156.47 308.333 2203.93 308.333C2288.47 308.333 2290.33 308.333 2295.8 305.533C2303.93 301.667 2306.6 296.467 2308.47 281.533C2311.27 259.133 2306.73 236.6 2298.6 232.067C2290.33 227.4 2284.73 227.133 2200.73 227C2155 227 2117.67 226.733 2117.67 226.333C2117.67 225.933 2118.2 224.6 2119 223.267C2119.67 222.067 2121.27 218.6 2122.6 215.667C2127.67 203.933 2144.73 192.067 2161.67 188.333C2165.67 187.533 2171.4 186.067 2174.33 185.4C2177.4 184.6 2203.27 183.533 2235.67 183.133C2283.8 182.333 2292.2 181.933 2295.67 180.067C2303.53 175.8 2306.33 170.467 2308.33 156.2C2311 137.133 2307.8 115.667 2301.4 108.733C2295 101.8 2293.13 101.667 2241.13 101.933C2214.73 101.933 2190.87 102.333 2188.33 102.6Z" fill="white"/>
<path d="M309.667 195.4C294.067 201.667 285.933 208.067 280.6 218.467C271.667 235.667 273 256.867 283.933 272.6C287.667 278.067 301.267 288.333 304.867 288.333C305.933 288.333 307.133 288.867 307.533 289.533C307.933 290.2 310.6 291.133 313.267 291.667C316.067 292.333 431.8 293.133 570.333 293.667C730.733 294.333 825.533 295.133 831 296.067C891.667 305.533 932.2 350.733 939 416.333C939.933 426.467 939.933 434.2 938.867 444.333C935.133 479.667 925.667 504.867 906.867 529.667C886.333 557 859.933 573.4 825.667 580.333C815 582.467 263.4 581.4 245.8 579.267C232.733 577.667 207 571.8 193 567.267C151.933 553.8 111.8 530.467 81.9333 502.333C77.9333 498.733 73.8 495.133 72.7333 494.467C71.1333 493.667 62.7333 501.267 35.5333 528.467C16.0666 547.8 0.466636 564.333 0.599969 565.133C1.1333 567.267 18.7333 583.267 33.6666 595.267C58.3333 615.133 104.067 641.667 129.667 651C134.467 652.733 139 654.467 139.667 655C140.867 655.8 156.733 661 179 667.667C189 670.733 226.733 677.4 241.667 678.867C262.867 680.867 831.533 681.267 843.667 679.133C872.333 674.467 892.2 668.333 914.333 657.667C939.667 645.4 957.267 632.867 977.133 613.133C1007.27 583 1029.93 542.2 1038.33 503C1043.4 479 1043.67 475.667 1043.67 429C1043.67 378.467 1043.27 373.533 1036.07 346.333C1030.73 326.467 1020.87 304.867 1008.2 285.667C993.8 263.8 962.067 233.667 941 221.533C921.8 210.6 902.333 202.733 879.8 196.6L866.333 193L591.667 192.733L317 192.467L309.667 195.4Z" fill="white"/>
<path d="M1337 227.933C1278.33 231.533 1240.33 239.8 1209 255.4C1174.47 272.6 1155.13 293.8 1144.6 325.8L1141 337V450.333V563.667L1144.07 574.067C1161.4 633.934 1219.8 666.067 1325 673.667C1351.13 675.534 1467.53 675.4 1474.33 673.534C1481.67 671.4 1487.4 665 1489.4 656.467C1491.4 647.534 1491.53 620.734 1489.4 612.6C1487.53 604.734 1484.07 599.667 1478.6 596.6C1474.73 594.6 1467.27 594.2 1403.67 593.533C1324.2 592.6 1310.47 591.4 1286.33 582.867C1268.6 576.733 1252.33 564.067 1246.33 551.8C1243 545 1243 544.2 1243.27 521.533L1243.67 498.333L1498.33 497.667C1717.93 497 1753.8 496.6 1758.33 495C1770.07 490.6 1773.8 486.867 1777.53 475.133C1778.47 472.2 1779 449.533 1779 408.467C1779 358.067 1778.6 344.467 1777 336.6C1764.07 274.867 1717.27 242.6 1623.53 231C1616.87 230.2 1604.87 229.133 1596.87 228.733C1581.53 227.933 1348.47 227.133 1337 227.933ZM1580.33 309.667C1623.4 312.733 1649.13 321.133 1663.93 336.733C1675.27 348.733 1675.53 349.533 1675.53 385.667L1675.67 417H1459.67H1243.67L1243.27 387.267C1243 360.2 1243.13 357 1245.53 351.667C1252.73 335.267 1275 320.867 1303.27 314.467C1310.73 312.867 1329.93 310.333 1345 309.133C1358.87 308.067 1564.47 308.467 1580.33 309.667Z" fill="white"/>
<path d="M2889.4 229.133C2876.33 233.267 2871.93 244.2 2872.6 271.133C2873 287 2873.4 289.667 2876.33 295.667C2882.6 308.067 2879.67 307.533 2953 308.467C3022.2 309.4 3038.33 310.733 3061 317.133C3082.07 323.133 3094.33 331 3100.6 342.467C3103.8 348.6 3104.87 352.067 3104.47 355.933C3104.33 357.267 3066.33 357.667 2919.4 357.667C2729 357.667 2713 358.067 2679 363.133C2649.53 367.533 2631.13 372.733 2609.13 382.6C2586.2 393 2564.47 410.467 2553.93 426.867C2547.27 437.267 2541 451.667 2539.13 461C2538.2 465.4 2537 470.867 2536.47 473.267C2534.47 480.6 2535 551.8 2537 562.333C2543.27 595.133 2559.93 619.4 2589 638.467C2618.6 657.8 2661.67 669.267 2721 673.667C2745.53 675.4 2997.53 675.4 3022.33 673.667C3070.87 670.2 3107 661.933 3137.53 647.533C3159.4 637.267 3175.13 624.867 3186.33 609.133C3194.6 597.533 3197 592.867 3201.4 579.533C3208.07 559.8 3208.33 554.333 3208.33 451.267C3208.33 348.467 3207.93 341.267 3201.4 322.2C3190.73 290.733 3164.2 264.867 3127.67 250.067C3112.47 243.933 3086.07 236.733 3067 233.8C3033.67 228.467 3023.13 227.933 2952.33 227.533C2905.8 227.267 2894.6 227.533 2889.4 229.133ZM3105.4 487.933C3105.67 538.333 3105.67 540.467 3102.87 547.933C3097 564.067 3075.93 579.4 3051 585.8C3024.33 592.733 3026.07 592.733 2884.33 593.267C2749.8 593.8 2729.4 593.4 2705.27 588.867C2691 586.333 2676.07 581.267 2667.4 576.333C2657.67 570.733 2645.13 558.733 2641.53 551.267C2638.47 545.267 2638.33 543.8 2638.33 514.333C2638.33 485.267 2638.47 483.4 2641.27 477.667C2651.93 456.067 2680.47 441.667 2720.07 437.8C2726.07 437.267 2731.4 436.333 2731.93 435.933C2732.33 435.4 2816.6 435.133 2918.87 435.267L3105 435.667L3105.4 487.933Z" fill="white"/>
<path d="M2399.67 231.667C2396.07 232.467 2391 233.667 2388.47 234.333C2386.07 234.867 2381.8 237.533 2379 240.2C2369.13 249.667 2369.67 236.2 2369.67 454.333C2369.67 669.933 2369.27 658.467 2378.2 667.4C2385.13 674.333 2394.07 676.6 2416.6 677.4C2431.8 677.8 2438.47 677.4 2446.2 675.8C2459.4 672.867 2464.07 669.533 2469 659.667L2473 651.667L2473.4 458.333C2473.67 316.067 2473.4 263 2472.33 257.667C2468.87 241.267 2460.33 234.2 2440.73 231.133C2428.73 229.267 2408.47 229.533 2399.67 231.667Z" fill="white"/>
</svg>
